# WaveFront *.obj file (generated by Autodesk ATF)

mtllib 166220ea-40cc-4f5f-a2e9-aaad18e99adb.mtl

g Body3

v 32.000000 22.500000 4.000000
v 32.129410 22.482963 4.000000
v 32.250000 22.433013 4.000000
v 32.353553 22.353553 4.000000
v 32.433013 22.250000 4.000000
v 32.482963 22.129410 4.000000
v 32.500000 22.000000 4.000000
v 32.500000 22.000000 0.000000
v 32.482963 22.129410 0.000000
v 32.433013 22.250000 0.000000
v 32.353553 22.353553 0.000000
v 32.250000 22.433013 0.000000
v 32.129410 22.482963 0.000000
v 32.000000 22.500000 0.000000
v 32.500000 0.500000 0.000000
v 32.482963 0.370590 0.000000
v 32.433013 0.250000 0.000000
v 32.353553 0.146447 0.000000
v 32.250000 0.066987 0.000000
v 32.129410 0.017037 0.000000
v 32.000000 0.000000 0.000000
v 0.500000 0.000000 0.000000
v 0.370590 0.017037 0.000000
v 0.250000 0.066987 0.000000
v 0.146447 0.146447 0.000000
v 0.066987 0.250000 0.000000
v 0.017037 0.370590 0.000000
v 0.000000 0.500000 0.000000
v 0.000000 22.000000 0.000000
v 0.017037 22.129410 0.000000
v 0.066987 22.250000 0.000000
v 0.146447 22.353553 0.000000
v 0.250000 22.433013 0.000000
v 0.370590 22.482963 0.000000
v 0.500000 22.500000 0.000000
v 32.500000 18.250000 4.000000
v 32.500000 18.250000 1.800000
v 32.500000 18.232963 1.670590
v 32.500000 18.183013 1.550000
v 32.500000 18.103553 1.446447
v 32.500000 18.000000 1.366987
v 32.500000 17.879410 1.317037
v 32.500000 17.750000 1.300000
v 32.500000 4.750000 1.300000
v 32.500000 4.620590 1.317037
v 32.500000 4.500000 1.366987
v 32.500000 4.396447 1.446447
v 32.500000 4.316987 1.550000
v 32.500000 4.267037 1.670590
v 32.500000 4.250000 1.800000
v 32.500000 4.250000 4.000000
v 32.500000 0.500000 4.000000
v 43.500000 18.250000 1.800000
v 43.500000 18.232963 1.670590
v 43.500000 18.183013 1.550000
v 43.500000 18.103553 1.446447
v 43.500000 18.000000 1.366987
v 43.500000 17.879410 1.317037
v 43.500000 17.750000 1.300000
v 43.500000 4.750000 1.300000
v 43.500000 18.250000 4.000000
v 43.500000 17.250000 4.000000
v 43.500000 17.250000 2.300000
v 43.500000 5.250000 2.300000
v 43.500000 5.250000 4.000000
v 43.500000 4.250000 4.000000
v 43.500000 4.250000 1.800000
v 43.500000 4.267037 1.670590
v 43.500000 4.316987 1.550000
v 43.500000 4.396447 1.446447
v 43.500000 4.500000 1.366987
v 43.500000 4.620590 1.317037
v 32.482963 0.370590 4.000000
v 32.433013 0.250000 4.000000
v 32.353553 0.146447 4.000000
v 32.250000 0.066987 4.000000
v 32.129410 0.017037 4.000000
v 32.000000 0.000000 4.000000
v 0.000000 22.000000 4.000000
v 0.017037 22.129410 4.000000
v 0.066987 22.250000 4.000000
v 0.146447 22.353553 4.000000
v 0.250000 22.433013 4.000000
v 0.370590 22.482963 4.000000
v 0.500000 22.500000 4.000000
v 0.000000 0.500000 4.000000
v 0.500000 0.000000 4.000000
v 0.370590 0.017037 4.000000
v 0.250000 0.066987 4.000000
v 0.146447 0.146447 4.000000
v 0.066987 0.250000 4.000000
v 0.017037 0.370590 4.000000
v 1.000000 21.500000 1.000000
v 1.000000 1.000000 1.000000
v 31.500000 1.000000 1.000000
v 31.500000 21.500000 1.000000
v 1.000000 21.500000 4.000000
v 1.000000 1.000000 4.000000
v 31.500000 1.000000 4.000000
v 31.500000 5.250000 4.000000
v 31.500000 5.250000 2.300000
v 31.500000 17.250000 2.300000
v 31.500000 17.250000 4.000000
v 31.500000 21.500000 4.000000
vt -0.000000 0.039270 0.000000
vt -0.400000 0.039270 0.000000
vt -0.000000 0.026180 0.000000
vt -0.400000 0.026180 0.000000
vt -0.000000 0.013090 0.000000
vt -0.400000 0.013090 0.000000
vt -0.000000 0.000000 0.000000
vt -0.400000 0.000000 0.000000
vt -0.000000 -0.013090 0.000000
vt -0.400000 -0.013090 0.000000
vt -0.000000 -0.026180 0.000000
vt -0.400000 -0.026180 0.000000
vt -0.000000 -0.039270 0.000000
vt -0.400000 -0.039270 0.000000
vt -1.587941 1.123296 0.000000
vt -1.600000 1.118301 0.000000
vt -1.575000 1.125000 0.000000
vt -1.610355 1.110355 0.000000
vt -1.618301 1.100000 0.000000
vt -1.623296 1.087941 0.000000
vt -1.625000 1.075000 0.000000
vt 1.625000 1.075000 0.000000
vt 1.625000 -1.075000 0.000000
vt -1.625000 -1.075000 0.000000
vt 1.575000 -1.125000 0.000000
vt -1.575000 -1.125000 0.000000
vt -1.623296 -1.087941 0.000000
vt -1.618301 -1.100000 0.000000
vt -1.610355 -1.110355 0.000000
vt -1.600000 -1.118301 0.000000
vt -1.587941 -1.123296 0.000000
vt 1.587941 -1.123296 0.000000
vt 1.600000 -1.118301 0.000000
vt 1.610355 -1.110355 0.000000
vt 1.618301 -1.100000 0.000000
vt 1.623296 -1.087941 0.000000
vt 1.575000 1.125000 0.000000
vt 1.623296 1.087941 0.000000
vt 1.618301 1.100000 0.000000
vt 1.610355 1.110355 0.000000
vt 1.600000 1.118301 0.000000
vt 1.587941 1.123296 0.000000
vt 2.200000 0.400000 0.000000
vt 1.825000 0.180000 0.000000
vt 2.200000 0.000000 0.000000
vt 1.823296 0.167059 0.000000
vt 1.818301 0.155000 0.000000
vt 1.825000 0.400000 0.000000
vt 1.810355 0.144645 0.000000
vt 1.800000 0.136699 0.000000
vt 1.787941 0.131704 0.000000
vt 1.775000 0.130000 0.000000
vt 0.475000 0.130000 0.000000
vt 0.050000 0.000000 0.000000
vt 0.462059 0.131704 0.000000
vt 0.450000 0.136699 0.000000
vt 0.439645 0.144645 0.000000
vt 0.431699 0.155000 0.000000
vt 0.426704 0.167059 0.000000
vt 0.425000 0.180000 0.000000
vt 0.050000 0.400000 0.000000
vt 0.425000 0.400000 0.000000
vt -0.000000 0.039270 0.000000
vt -1.100000 0.039270 0.000000
vt -0.000000 0.026180 0.000000
vt -1.100000 0.026180 0.000000
vt -0.000000 0.013090 0.000000
vt -1.100000 0.013090 0.000000
vt -0.000000 0.000000 0.000000
vt -1.100000 0.000000 0.000000
vt -0.000000 -0.013090 0.000000
vt -1.100000 -0.013090 0.000000
vt -0.000000 -0.026180 0.000000
vt -1.100000 -0.026180 0.000000
vt -0.000000 -0.039270 0.000000
vt -1.100000 -0.039270 0.000000
vt 1.350000 1.100000 0.000000
vt 0.050000 1.100000 0.000000
vt 1.350000 0.000000 0.000000
vt 0.050000 0.000000 0.000000
vt 0.248296 0.662941 0.000000
vt 0.243301 0.675000 0.000000
vt 0.250000 0.650000 0.000000
vt 0.235355 0.685355 0.000000
vt 0.225000 0.693301 0.000000
vt 0.212941 0.698296 0.000000
vt 0.150000 0.600000 0.000000
vt 0.250000 -0.650000 0.000000
vt 0.150000 -0.600000 0.000000
vt 0.212941 -0.698296 0.000000
vt 0.200000 -0.700000 0.000000
vt -0.020000 -0.700000 0.000000
vt -0.020000 -0.600000 0.000000
vt 0.200000 0.700000 0.000000
vt -0.020000 0.700000 0.000000
vt -0.020000 0.600000 0.000000
vt 0.225000 -0.693301 0.000000
vt 0.235355 -0.685355 0.000000
vt 0.243301 -0.675000 0.000000
vt 0.248296 -0.662941 0.000000
vt -0.000000 0.039270 0.000000
vt -1.100000 0.039270 0.000000
vt -0.000000 0.026180 0.000000
vt -1.100000 0.026180 0.000000
vt -0.000000 0.013090 0.000000
vt -1.100000 0.013090 0.000000
vt -0.000000 0.000000 0.000000
vt -1.100000 0.000000 0.000000
vt -0.000000 -0.013090 0.000000
vt -1.100000 -0.013090 0.000000
vt -0.000000 -0.026180 0.000000
vt -1.100000 -0.026180 0.000000
vt -0.000000 -0.039270 0.000000
vt -1.100000 -0.039270 0.000000
vt 0.450000 1.100000 0.000000
vt 0.230000 1.100000 0.000000
vt 0.450000 0.000000 0.000000
vt 0.230000 0.000000 0.000000
vt -0.000000 0.039270 0.000000
vt -0.400000 0.039270 0.000000
vt -0.000000 0.026180 0.000000
vt -0.400000 0.026180 0.000000
vt -0.000000 0.013090 0.000000
vt -0.400000 0.013090 0.000000
vt -0.000000 0.000000 0.000000
vt -0.400000 0.000000 0.000000
vt -0.000000 -0.013090 0.000000
vt -0.400000 -0.013090 0.000000
vt -0.000000 -0.026180 0.000000
vt -0.400000 -0.026180 0.000000
vt -0.000000 -0.039270 0.000000
vt -0.400000 -0.039270 0.000000
vt -0.000000 0.039270 0.000000
vt -0.400000 0.039270 0.000000
vt -0.000000 0.026180 0.000000
vt -0.400000 0.026180 0.000000
vt -0.000000 0.013090 0.000000
vt -0.400000 0.013090 0.000000
vt -0.000000 -0.000000 0.000000
vt -0.400000 -0.000000 0.000000
vt -0.000000 -0.013090 0.000000
vt -0.400000 -0.013090 0.000000
vt -0.000000 -0.026180 0.000000
vt -0.400000 -0.026180 0.000000
vt -0.000000 -0.039270 0.000000
vt -0.400000 -0.039270 0.000000
vt 0.050000 0.000000 0.000000
vt 2.200000 0.000000 0.000000
vt 0.050000 0.400000 0.000000
vt 2.200000 0.400000 0.000000
vt -0.000000 0.039270 0.000000
vt -0.400000 0.039270 0.000000
vt -0.000000 0.026180 0.000000
vt -0.400000 0.026180 0.000000
vt -0.000000 0.013090 0.000000
vt -0.400000 0.013090 0.000000
vt -0.000000 0.000000 0.000000
vt -0.400000 0.000000 0.000000
vt -0.000000 -0.013090 0.000000
vt -0.400000 -0.013090 0.000000
vt -0.000000 -0.026180 0.000000
vt -0.400000 -0.026180 0.000000
vt -0.000000 -0.039270 0.000000
vt -0.400000 -0.039270 0.000000
vt 3.200000 0.400000 0.000000
vt 0.050000 0.400000 0.000000
vt 3.200000 0.000000 0.000000
vt 0.050000 0.000000 0.000000
vt -1.525000 -1.025000 0.000000
vt 1.525000 -1.025000 0.000000
vt -1.525000 1.025000 0.000000
vt 1.525000 1.025000 0.000000
vt -0.100000 0.400000 0.000000
vt -2.150000 0.400000 0.000000
vt -0.100000 0.100000 0.000000
vt -2.150000 0.100000 0.000000
vt -0.100000 0.400000 0.000000
vt -3.150000 0.400000 0.000000
vt -0.100000 0.100000 0.000000
vt -3.150000 0.100000 0.000000
vt -0.525000 0.400000 0.000000
vt -0.525000 0.230000 0.000000
vt -0.100000 0.400000 0.000000
vt -0.100000 0.100000 0.000000
vt -1.725000 0.230000 0.000000
vt -2.150000 0.100000 0.000000
vt -2.150000 0.400000 0.000000
vt -1.725000 0.400000 0.000000
vt 1.200000 1.100000 0.000000
vt 0.000000 1.100000 0.000000
vt 1.200000 -0.100000 0.000000
vt 0.000000 -0.100000 0.000000
vt 0.170000 1.100000 0.000000
vt 0.000000 1.100000 0.000000
vt 0.170000 -0.100000 0.000000
vt 0.000000 -0.100000 0.000000
vt -0.100000 0.400000 0.000000
vt -3.150000 0.400000 0.000000
vt -0.100000 0.100000 0.000000
vt -3.150000 0.100000 0.000000
vt 0.130000 -0.100000 0.000000
vt 0.300000 -0.100000 0.000000
vt 0.130000 1.100000 0.000000
vt 0.300000 1.100000 0.000000
vt 0.050000 0.000000 0.000000
vt 0.270000 0.000000 0.000000
vt 0.050000 1.100000 0.000000
vt 0.270000 1.100000 0.000000
vt 0.050000 0.000000 0.000000
vt 3.200000 0.000000 0.000000
vt 0.050000 0.400000 0.000000
vt 3.200000 0.400000 0.000000
vt 1.075000 0.700000 0.000000
vt 1.075000 1.075000 0.000000
vt 0.975000 1.025000 0.000000
vt 1.073296 1.087941 0.000000
vt 1.025000 1.125000 0.000000
vt 1.068301 1.100000 0.000000
vt 1.060355 1.110355 0.000000
vt 1.050000 1.118301 0.000000
vt 1.037941 1.123296 0.000000
vt -2.125000 1.125000 0.000000
vt -2.075000 1.025000 0.000000
vt -2.173296 1.087941 0.000000
vt -2.175000 1.075000 0.000000
vt -2.137941 1.123296 0.000000
vt -2.150000 1.118301 0.000000
vt -2.160355 1.110355 0.000000
vt -2.168301 1.100000 0.000000
vt -2.175000 -1.075000 0.000000
vt -2.075000 -1.025000 0.000000
vt -2.173296 -1.087941 0.000000
vt -2.125000 -1.125000 0.000000
vt -2.168301 -1.100000 0.000000
vt -2.160355 -1.110355 0.000000
vt -2.150000 -1.118301 0.000000
vt -2.137941 -1.123296 0.000000
vt 1.025000 -1.125000 0.000000
vt 0.975000 -1.025000 0.000000
vt 1.073296 -1.087941 0.000000
vt 1.075000 -1.075000 0.000000
vt 1.037941 -1.123296 0.000000
vt 1.050000 -1.118301 0.000000
vt 1.060355 -1.110355 0.000000
vt 1.068301 -1.100000 0.000000
vt 1.075000 -0.700000 0.000000
vt 0.975000 -0.600000 0.000000
vt 2.175000 -0.600000 0.000000
vt 2.175000 -0.700000 0.000000
vt 0.975000 0.600000 0.000000
vt 2.175000 0.600000 0.000000
vt 2.175000 0.700000 0.000000
vn 0.000000 0.100000 0.000000
vn 0.000000 0.100000 0.000000
vn 0.025882 0.096593 0.000000
vn 0.025882 0.096593 0.000000
vn 0.050000 0.086603 0.000000
vn 0.050000 0.086603 0.000000
vn 0.070711 0.070711 0.000000
vn 0.070711 0.070711 0.000000
vn 0.086603 0.050000 0.000000
vn 0.086603 0.050000 0.000000
vn 0.096593 0.025882 0.000000
vn 0.096593 0.025882 0.000000
vn 0.100000 0.000000 0.000000
vn 0.100000 0.000000 0.000000
vn 0.000000 0.000000 -0.100000
vn 0.000000 0.000000 -0.100000
vn 0.000000 0.000000 -0.100000
vn 0.000000 0.000000 -0.100000
vn 0.000000 0.000000 -0.100000
vn 0.000000 0.000000 -0.100000
vn 0.000000 0.000000 -0.100000
vn 0.000000 0.000000 -0.100000
vn 0.000000 0.000000 -0.100000
vn 0.000000 0.000000 -0.100000
vn 0.000000 0.000000 -0.100000
vn 0.000000 0.000000 -0.100000
vn 0.000000 0.000000 -0.100000
vn 0.000000 0.000000 -0.100000
vn 0.000000 0.000000 -0.100000
vn 0.000000 0.000000 -0.100000
vn 0.000000 0.000000 -0.100000
vn 0.000000 0.000000 -0.100000
vn 0.000000 0.000000 -0.100000
vn 0.000000 0.000000 -0.100000
vn 0.000000 0.000000 -0.100000
vn 0.000000 0.000000 -0.100000
vn 0.000000 0.000000 -0.100000
vn 0.000000 0.000000 -0.100000
vn 0.000000 0.000000 -0.100000
vn 0.000000 0.000000 -0.100000
vn 0.000000 0.000000 -0.100000
vn 0.000000 0.000000 -0.100000
vn 0.100000 0.000000 0.000000
vn 0.100000 0.000000 0.000000
vn 0.100000 0.000000 0.000000
vn 0.100000 0.000000 0.000000
vn 0.100000 0.000000 0.000000
vn 0.100000 0.000000 0.000000
vn 0.100000 0.000000 0.000000
vn 0.100000 0.000000 0.000000
vn 0.100000 0.000000 0.000000
vn 0.100000 0.000000 0.000000
vn 0.100000 0.000000 0.000000
vn 0.100000 0.000000 0.000000
vn 0.100000 0.000000 0.000000
vn 0.100000 0.000000 0.000000
vn 0.100000 0.000000 0.000000
vn 0.100000 0.000000 0.000000
vn 0.100000 0.000000 0.000000
vn 0.100000 0.000000 0.000000
vn -0.000000 0.100000 -0.000000
vn -0.000000 0.100000 -0.000000
vn -0.000000 0.096593 -0.025882
vn -0.000000 0.096593 -0.025882
vn -0.000000 0.086603 -0.050000
vn -0.000000 0.086603 -0.050000
vn -0.000000 0.070711 -0.070711
vn -0.000000 0.070711 -0.070711
vn -0.000000 0.050000 -0.086603
vn -0.000000 0.050000 -0.086603
vn -0.000000 0.025882 -0.096593
vn -0.000000 0.025882 -0.096593
vn 0.000000 0.000000 -0.100000
vn 0.000000 0.000000 -0.100000
vn 0.000000 -0.000000 -0.100000
vn 0.000000 -0.000000 -0.100000
vn 0.100000 0.000000 0.000000
vn 0.100000 0.000000 0.000000
vn 0.100000 0.000000 0.000000
vn 0.100000 0.000000 0.000000
vn 0.100000 0.000000 0.000000
vn 0.100000 0.000000 0.000000
vn 0.100000 0.000000 0.000000
vn 0.100000 0.000000 0.000000
vn 0.100000 0.000000 0.000000
vn 0.100000 0.000000 0.000000
vn 0.100000 0.000000 0.000000
vn 0.100000 0.000000 0.000000
vn 0.100000 0.000000 0.000000
vn 0.100000 0.000000 0.000000
vn 0.100000 0.000000 0.000000
vn 0.100000 0.000000 0.000000
vn 0.100000 0.000000 0.000000
vn 0.100000 0.000000 0.000000
vn 0.100000 0.000000 0.000000
vn 0.100000 0.000000 0.000000
vn 0.000000 -0.025882 -0.096593
vn 0.000000 -0.025882 -0.096593
vn 0.000000 -0.050000 -0.086603
vn 0.000000 -0.050000 -0.086603
vn 0.000000 -0.070711 -0.070711
vn 0.000000 -0.070711 -0.070711
vn 0.000000 -0.086603 -0.050000
vn 0.000000 -0.086603 -0.050000
vn 0.000000 -0.096593 -0.025882
vn 0.000000 -0.096593 -0.025882
vn 0.000000 -0.100000 0.000000
vn 0.000000 -0.100000 0.000000
vn 0.000000 -0.100000 0.000000
vn 0.000000 -0.100000 0.000000
vn 0.096593 -0.025882 0.000000
vn 0.096593 -0.025882 0.000000
vn 0.086603 -0.050000 0.000000
vn 0.086603 -0.050000 0.000000
vn 0.070711 -0.070711 0.000000
vn 0.070711 -0.070711 0.000000
vn 0.050000 -0.086603 0.000000
vn 0.050000 -0.086603 0.000000
vn 0.025882 -0.096593 0.000000
vn 0.025882 -0.096593 0.000000
vn 0.000000 -0.100000 0.000000
vn 0.000000 -0.100000 0.000000
vn -0.100000 0.000000 0.000000
vn -0.100000 0.000000 0.000000
vn -0.096593 0.025882 -0.000000
vn -0.096593 0.025882 -0.000000
vn -0.086603 0.050000 -0.000000
vn -0.086603 0.050000 -0.000000
vn -0.070711 0.070711 -0.000000
vn -0.070711 0.070711 -0.000000
vn -0.050000 0.086603 -0.000000
vn -0.050000 0.086603 -0.000000
vn -0.025882 0.096593 -0.000000
vn -0.025882 0.096593 -0.000000
vn -0.000000 0.100000 -0.000000
vn 0.000000 0.100000 0.000000
vn -0.100000 0.000000 0.000000
vn -0.100000 0.000000 0.000000
vn 0.000000 -0.100000 0.000000
vn 0.000000 -0.100000 0.000000
vn -0.025882 -0.096593 0.000000
vn -0.025882 -0.096593 0.000000
vn -0.050000 -0.086603 0.000000
vn -0.050000 -0.086603 0.000000
vn -0.070711 -0.070711 0.000000
vn -0.070711 -0.070711 0.000000
vn -0.086603 -0.050000 0.000000
vn -0.086603 -0.050000 0.000000
vn -0.096593 -0.025882 0.000000
vn -0.096593 -0.025882 0.000000
vn 0.000000 0.000000 0.100000
vn 0.000000 0.000000 0.100000
vn 0.000000 0.000000 0.100000
vn 0.000000 0.000000 0.100000
vn 0.100000 0.000000 0.000000
vn 0.100000 0.000000 0.000000
vn 0.100000 0.000000 0.000000
vn 0.100000 0.000000 0.000000
vn -0.000000 0.100000 -0.000000
vn -0.000000 0.100000 -0.000000
vn -0.000000 0.100000 -0.000000
vn -0.000000 0.100000 -0.000000
vn -0.100000 0.000000 0.000000
vn -0.100000 0.000000 0.000000
vn -0.100000 0.000000 0.000000
vn -0.100000 0.000000 0.000000
vn -0.100000 0.000000 0.000000
vn -0.100000 0.000000 0.000000
vn -0.100000 0.000000 0.000000
vn -0.100000 0.000000 0.000000
vn 0.000000 0.000000 0.100000
vn 0.000000 0.000000 0.100000
vn 0.000000 0.000000 0.100000
vn 0.000000 0.000000 0.100000
vn 0.000000 0.100000 -0.000000
vn 0.000000 0.100000 -0.000000
vn 0.000000 0.100000 -0.000000
vn 0.000000 0.100000 -0.000000
vn 0.000000 -0.100000 0.000000
vn 0.000000 -0.100000 0.000000
vn 0.000000 -0.100000 0.000000
vn 0.000000 -0.100000 0.000000
vn 0.000000 -0.100000 0.000000
vn 0.000000 -0.100000 0.000000
vn 0.000000 -0.100000 0.000000
vn 0.000000 -0.100000 0.000000
vn 0.000000 0.100000 -0.000000
vn 0.000000 0.100000 -0.000000
vn 0.000000 0.000000 0.100000
vn 0.000000 0.000000 0.100000
vn 0.000000 0.000000 0.100000
vn 0.000000 0.000000 0.100000
vn 0.000000 0.000000 0.100000
vn 0.000000 0.000000 0.100000
vn 0.000000 0.000000 0.100000
vn 0.000000 0.000000 0.100000
vn 0.000000 0.000000 0.100000
vn 0.000000 0.000000 0.100000
vn 0.000000 0.000000 0.100000
vn 0.000000 0.000000 0.100000
vn 0.000000 0.000000 0.100000
vn 0.000000 0.000000 0.100000
vn 0.000000 0.000000 0.100000
vn 0.000000 0.000000 0.100000
vn 0.000000 0.000000 0.100000
vn 0.000000 0.000000 0.100000
vn 0.000000 0.000000 0.100000
vn 0.000000 0.000000 0.100000
vn 0.000000 0.000000 0.100000
vn 0.000000 0.000000 0.100000
vn 0.000000 0.000000 0.100000
vn 0.000000 0.000000 0.100000
vn 0.000000 0.000000 0.100000
vn 0.000000 0.000000 0.100000
vn 0.000000 0.000000 0.100000
vn 0.000000 0.000000 0.100000
vn 0.000000 0.000000 0.100000
vn 0.000000 0.000000 0.100000
vn 0.000000 0.000000 0.100000
vn 0.000000 0.000000 0.100000
vn 0.000000 0.000000 0.100000
vn 0.000000 0.000000 0.100000
vn 0.000000 0.000000 0.100000
vn 0.000000 0.000000 0.100000
vn 0.000000 0.000000 0.100000
vn 0.000000 0.000000 0.100000
vn 0.000000 0.000000 0.100000
vn 0.000000 0.000000 0.100000
usemtl Steel_-_Satin
f 14/1/1 1/2/2 13/3/3
f 13/3/3 1/2/2 2/4/4
f 13/3/3 2/4/4 12/5/5
f 12/5/5 2/4/4 3/6/6
f 12/5/5 3/6/6 11/7/7
f 11/7/7 3/6/6 4/8/8
f 11/7/7 4/8/8 10/9/9
f 10/9/9 4/8/8 5/10/10
f 10/9/9 5/10/10 9/11/11
f 9/11/11 5/10/10 6/12/12
f 9/11/11 6/12/12 8/13/13
f 8/13/13 6/12/12 7/14/14
f 13/15/15 12/16/16 14/17/17
f 14/17/17 12/16/16 11/18/18
f 14/17/17 11/18/18 10/19/19
f 10/19/19 9/20/20 14/17/17
f 14/17/17 9/20/20 8/21/21
f 14/17/17 8/21/21 29/22/22
f 29/22/22 8/21/21 28/23/23
f 28/23/23 8/21/21 15/24/24
f 28/23/23 15/24/24 22/25/25
f 22/25/25 15/24/24 21/26/26
f 21/26/26 15/24/24 16/27/27
f 21/26/26 16/27/27 17/28/28
f 17/28/28 18/29/29 21/26/26
f 21/26/26 18/29/29 19/30/30
f 21/26/26 19/30/30 20/31/31
f 23/32/32 24/33/33 22/25/25
f 22/25/25 24/33/33 25/34/34
f 22/25/25 25/34/34 26/35/35
f 26/35/35 27/36/36 22/25/25
f 22/25/25 27/36/36 28/23/23
f 14/17/17 29/22/22 35/37/37
f 35/37/37 29/22/22 30/38/38
f 35/37/37 30/38/38 31/39/39
f 31/39/39 32/40/40 35/37/37
f 35/37/37 32/40/40 33/41/41
f 35/37/37 33/41/41 34/42/42
f 7/43/14 37/44/43 8/45/13
f 8/45/13 37/44/43 38/46/44
f 8/45/13 38/46/44 39/47/45
f 7/43/14 36/48/46 37/44/43
f 39/47/45 40/49/47 8/45/13
f 8/45/13 40/49/47 41/50/48
f 8/45/13 41/50/48 42/51/49
f 42/51/49 43/52/50 8/45/13
f 8/45/13 43/52/50 44/53/51
f 8/45/13 44/53/51 15/54/52
f 15/54/52 44/53/51 45/55/53
f 15/54/52 45/55/53 46/56/54
f 46/56/54 47/57/55 15/54/52
f 15/54/52 47/57/55 48/58/56
f 15/54/52 48/58/56 49/59/57
f 49/59/57 50/60/58 15/54/52
f 15/54/52 50/60/58 52/61/59
f 52/61/59 50/60/58 51/62/60
f 37/63/61 53/64/62 38/65/63
f 38/65/63 53/64/62 54/66/64
f 38/65/63 54/66/64 39/67/65
f 39/67/65 54/66/64 55/68/66
f 39/67/65 55/68/66 40/69/67
f 40/69/67 55/68/66 56/70/68
f 40/69/67 56/70/68 41/71/69
f 41/71/69 56/70/68 57/72/70
f 41/71/69 57/72/70 42/73/71
f 42/73/71 57/72/70 58/74/72
f 42/73/71 58/74/72 43/75/73
f 43/75/73 58/74/72 59/76/74
f 59/77/74 60/78/75 43/79/73
f 43/79/73 60/78/75 44/80/76
f 58/81/77 57/82/78 59/83/79
f 59/83/79 57/82/78 56/84/80
f 59/83/79 56/84/80 55/85/81
f 55/85/81 54/86/82 59/83/79
f 59/83/79 54/86/82 63/87/83
f 59/83/79 63/87/83 60/88/84
f 60/88/84 63/87/83 64/89/85
f 60/88/84 64/89/85 68/90/86
f 68/90/86 64/89/85 67/91/87
f 67/91/87 64/89/85 66/92/88
f 66/92/88 64/89/85 65/93/89
f 54/86/82 53/94/90 63/87/83
f 63/87/83 53/94/90 61/95/91
f 63/87/83 61/95/91 62/96/92
f 68/90/86 69/97/93 60/88/84
f 60/88/84 69/97/93 70/98/94
f 60/88/84 70/98/94 71/99/95
f 71/99/95 72/100/96 60/88/84
f 44/101/76 60/102/75 45/103/97
f 45/103/97 60/102/75 72/104/98
f 45/103/97 72/104/98 46/105/99
f 46/105/99 72/104/98 71/106/100
f 46/105/99 71/106/100 47/107/101
f 47/107/101 71/106/100 70/108/102
f 47/107/101 70/108/102 48/109/103
f 48/109/103 70/108/102 69/110/104
f 48/109/103 69/110/104 49/111/105
f 49/111/105 69/110/104 68/112/106
f 49/111/105 68/112/106 50/113/107
f 50/113/107 68/112/106 67/114/108
f 67/115/108 66/116/109 50/117/107
f 50/117/107 66/116/109 51/118/110
f 15/119/52 52/120/59 16/121/111
f 16/121/111 52/120/59 73/122/112
f 16/121/111 73/122/112 17/123/113
f 17/123/113 73/122/112 74/124/114
f 17/123/113 74/124/114 18/125/115
f 18/125/115 74/124/114 75/126/116
f 18/125/115 75/126/116 19/127/117
f 19/127/117 75/126/116 76/128/118
f 19/127/117 76/128/118 20/129/119
f 20/129/119 76/128/118 77/130/120
f 20/129/119 77/130/120 21/131/121
f 21/131/121 77/130/120 78/132/122
f 29/133/123 79/134/124 30/135/125
f 30/135/125 79/134/124 80/136/126
f 30/135/125 80/136/126 31/137/127
f 31/137/127 80/136/126 81/138/128
f 31/137/127 81/138/128 32/139/129
f 32/139/129 81/138/128 82/140/130
f 32/139/129 82/140/130 33/141/131
f 33/141/131 82/140/130 83/142/132
f 33/141/131 83/142/132 34/143/133
f 34/143/133 83/142/132 84/144/134
f 34/143/133 84/144/134 35/145/135
f 35/145/135 84/144/134 85/146/136
f 29/147/123 28/148/137 79/149/124
f 79/149/124 28/148/137 86/150/138
f 22/151/139 87/152/140 23/153/141
f 23/153/141 87/152/140 88/154/142
f 23/153/141 88/154/142 24/155/143
f 24/155/143 88/154/142 89/156/144
f 24/155/143 89/156/144 25/157/145
f 25/157/145 89/156/144 90/158/146
f 25/157/145 90/158/146 26/159/147
f 26/159/147 90/158/146 91/160/148
f 26/159/147 91/160/148 27/161/149
f 27/161/149 91/160/148 92/162/150
f 27/161/149 92/162/150 28/163/137
f 28/163/137 92/162/150 86/164/138
f 78/165/122 87/166/140 21/167/121
f 21/167/121 87/166/140 22/168/139
f 94/169/151 95/170/152 93/171/153
f 93/171/153 95/170/152 96/172/154
f 97/173/155 98/174/156 93/175/157
f 93/175/157 98/174/156 94/176/158
f 98/177/159 99/178/160 94/179/161
f 94/179/161 99/178/160 95/180/162
f 100/181/163 101/182/164 99/183/165
f 99/183/165 101/182/164 95/184/166
f 95/184/166 101/182/164 102/185/167
f 95/184/166 102/185/167 96/186/168
f 96/186/168 102/185/167 104/187/169
f 104/187/169 102/185/167 103/188/170
f 64/189/171 63/190/172 101/191/173
f 101/191/173 63/190/172 102/192/174
f 65/193/175 64/194/176 100/195/177
f 100/195/177 64/194/176 101/196/178
f 104/197/179 97/198/180 96/199/181
f 96/199/181 97/198/180 93/200/182
f 103/201/183 102/202/184 62/203/185
f 62/203/185 102/202/184 63/204/186
f 37/205/61 36/206/187 53/207/62
f 53/207/62 36/206/187 61/208/188
f 14/209/1 35/210/135 1/211/2
f 1/211/2 35/210/135 85/212/136
f 36/213/189 7/214/190 104/215/191
f 104/215/191 7/214/190 6/216/192
f 104/215/191 6/216/192 1/217/193
f 1/217/193 6/216/192 5/218/194
f 1/217/193 5/218/194 4/219/195
f 4/219/195 3/220/196 1/217/193
f 1/217/193 3/220/196 2/221/197
f 1/217/193 85/222/198 104/215/191
f 104/215/191 85/222/198 97/223/199
f 97/223/199 85/222/198 80/224/200
f 97/223/199 80/224/200 79/225/201
f 84/226/202 83/227/203 85/222/198
f 85/222/198 83/227/203 82/228/204
f 85/222/198 82/228/204 81/229/205
f 81/229/205 80/224/200 85/222/198
f 79/225/201 86/230/206 97/223/199
f 97/223/199 86/230/206 98/231/207
f 98/231/207 86/230/206 92/232/208
f 98/231/207 92/232/208 87/233/209
f 87/233/209 92/232/208 91/234/210
f 87/233/209 91/234/210 90/235/211
f 90/235/211 89/236/212 87/233/209
f 87/233/209 89/236/212 88/237/213
f 87/233/209 78/238/214 98/231/207
f 98/231/207 78/238/214 99/239/215
f 99/239/215 78/238/214 73/240/216
f 99/239/215 73/240/216 52/241/217
f 77/242/218 76/243/219 78/238/214
f 78/238/214 76/243/219 75/244/220
f 78/238/214 75/244/220 74/245/221
f 74/245/221 73/240/216 78/238/214
f 52/241/217 51/246/222 99/239/215
f 99/239/215 51/246/222 100/247/223
f 100/247/223 51/246/222 65/248/224
f 65/248/224 51/246/222 66/249/225
f 104/215/191 103/250/226 36/213/189
f 36/213/189 103/250/226 62/251/227
f 36/213/189 62/251/227 61/252/228

# 104 vertices
# 252 texture params
# 228 normals
# 204 facets

# 1 groups
